<svg xmlns="http://www.w3.org/2000/svg" viewBox="0 0 17 19">
  <path fill="currentColor" d="M8.5 0 0 4.75v9.6037L8.5 19 17 14.3537V4.8015L8.5 0Zm-.7727 16.7833-5.1495-2.8143 3.2462-2.2175c.8346-.5692-.0509-1.8675-.9605-1.2469l-3.3181 2.2658V6.5154l6.1818 3.454v6.8139Zm-5.3063-11.582 5.3063-2.9656v3.5039c0 1.0474 1.5455 1.0482 1.5455 0V2.2444l5.3396 3.017-6.1084 3.3392-6.0829-3.3993Zm6.8518 4.7738 6.1818-3.3796v6.175l-3.2941-2.2499c-.9126-.6215-1.795.6768-.962 1.246l3.2238 2.2017-5.1495 2.8151v-6.8083Z"/>
</svg>
