<svg xmlns="http://www.w3.org/2000/svg" viewBox="0 0 18 18">
    <path d="M9.00865 17.5395C8.96532 17.5398 8.922 17.5388 8.87872 17.5366C8.83542 17.5343 8.79225 17.5309 8.74918 17.5261C8.70609 17.5214 8.66319 17.5155 8.62045 17.5083C8.5777 17.5011 8.5352 17.4927 8.49296 17.4831C8.4507 17.4734 8.40876 17.4626 8.36713 17.4505C8.32549 17.4385 8.28424 17.4252 8.24338 17.4108C8.20251 17.3964 8.16209 17.3808 8.12214 17.364C8.08215 17.3472 8.0427 17.3293 8.00377 17.3103L1.23407 13.9431C1.21103 13.9317 1.1882 13.9199 1.16558 13.9076C1.14295 13.8954 1.12055 13.8828 1.09836 13.8698C1.07617 13.8568 1.05421 13.8434 1.03249 13.8296C1.01077 13.8159 0.989291 13.8018 0.96806 13.7872C0.946827 13.7727 0.925855 13.7579 0.90514 13.7426C0.884424 13.7274 0.863979 13.7118 0.843806 13.6959C0.823631 13.6799 0.803741 13.6636 0.784134 13.647C0.764524 13.6303 0.745211 13.6134 0.726193 13.5961C0.707174 13.5787 0.688462 13.5611 0.670057 13.5431C0.65165 13.5252 0.633561 13.5069 0.61579 13.4883C0.598018 13.4697 0.580576 13.4509 0.563461 13.4317C0.546345 13.4125 0.529567 13.393 0.513129 13.3732C0.496689 13.3534 0.480599 13.3334 0.464858 13.3131C0.449115 13.2927 0.433731 13.2721 0.418706 13.2512C0.403678 13.2304 0.389018 13.2093 0.374726 13.1879C0.360432 13.1665 0.346515 13.1449 0.332972 13.123C0.319429 13.1012 0.306271 13.0791 0.293496 13.0568C0.280722 13.0344 0.268337 13.0119 0.256346 12.9891C0.244353 12.9664 0.232758 12.9434 0.221563 12.9203C0.210368 12.8972 0.199577 12.8738 0.189194 12.8503C0.178808 12.8268 0.168834 12.8031 0.159273 12.7792C0.149711 12.7553 0.140566 12.7313 0.131839 12.7071C0.123112 12.6829 0.114807 12.6586 0.106925 12.6341C0.0990433 12.6096 0.0915885 12.585 0.0845611 12.5603C0.0775335 12.5355 0.0709376 12.5107 0.0647733 12.4857C0.0586088 12.4608 0.0528798 12.4357 0.047586 12.4105C0.0422921 12.3854 0.0374368 12.3601 0.0330199 12.3348C0.028603 12.3094 0.0246272 12.284 0.0210925 12.2586C0.0175578 12.2331 0.0144664 12.2076 0.0118182 12.182C0.00917007 12.1564 0.00696674 12.1308 0.00520826 12.1051C0.00344978 12.0795 0.0021372 12.0538 0.00127055 12.0281C0.000403885 12.0024 -1.63456e-05 11.9767 9.85479e-06 11.951L9.85479e-06 5.48099C-0.000126851 5.43506 0.00115873 5.38919 0.00386659 5.34337C0.00657445 5.29753 0.0106994 5.25182 0.0162414 5.20625C0.0217834 5.16068 0.0287319 5.11532 0.0370868 5.07017C0.0454416 5.02502 0.055187 4.98017 0.0663226 4.93562C0.0774582 4.89107 0.0899629 4.84693 0.103837 4.80317C0.11771 4.7594 0.132926 4.7161 0.149485 4.67328C0.166043 4.63046 0.183912 4.58818 0.203093 4.54647C0.222272 4.50474 0.242725 4.46366 0.264452 4.42322L0.264452 4.37033C0.282081 4.33507 0.31734 4.28219 0.352599 4.2293C0.366235 4.20959 0.380185 4.19011 0.394449 4.17084C0.408712 4.15157 0.423281 4.13255 0.438156 4.11375C0.453029 4.09496 0.4682 4.07642 0.483672 4.0581C0.499142 4.0398 0.514902 4.02175 0.530952 4.00394C0.547002 3.98615 0.563332 3.96861 0.579946 3.95133C0.596558 3.93406 0.613444 3.91705 0.630604 3.90032C0.647763 3.88358 0.665186 3.86712 0.682874 3.85095C0.700561 3.83479 0.718505 3.8189 0.736702 3.8033C0.754899 3.7877 0.773343 3.7724 0.792033 3.75739C0.810721 3.74239 0.829646 3.72769 0.848809 3.71328C0.867969 3.69888 0.887356 3.6848 0.90697 3.67103C0.926585 3.65726 0.946414 3.64379 0.966461 3.63066C0.986505 3.61752 1.00676 3.60471 1.02722 3.59221C1.04767 3.57972 1.06833 3.56758 1.08917 3.55575C1.11002 3.54392 1.13105 3.53242 1.15227 3.52128C1.17348 3.51012 1.19488 3.49932 1.21644 3.48886L8.00377 0.227421C8.02292 0.218106 8.04219 0.209066 8.06158 0.200297C8.08097 0.191528 8.10051 0.183036 8.12015 0.174819C8.13978 0.166603 8.15953 0.158667 8.1794 0.15101C8.19925 0.143353 8.21922 0.135978 8.2393 0.128886C8.25937 0.121795 8.27955 0.114988 8.29982 0.108467C8.32008 0.101946 8.34043 0.0957131 8.36088 0.0897681C8.38133 0.0838233 8.40185 0.0781687 8.42245 0.0728046C8.44305 0.0674405 8.46373 0.062369 8.48448 0.05759C8.50521 0.052811 8.52603 0.0483265 8.5469 0.0441365C8.56777 0.0399465 8.5887 0.0360527 8.60968 0.0324551C8.63066 0.0288574 8.65169 0.0255572 8.67278 0.0225547C8.69384 0.0195523 8.71496 0.0168486 8.73612 0.0144437C8.75727 0.0120388 8.77845 0.00993374 8.79965 0.00812838C8.82086 0.00632306 8.84211 0.00481819 8.86337 0.00361382C8.88461 0.00240945 8.90587 0.00150605 8.92717 0.000903635C8.94845 0.000301211 8.96973 0 8.99102 0C9.0123 0 9.03358 0.000301211 9.05488 0.000903635C9.07615 0.00150605 9.09741 0.00240945 9.11868 0.00361382C9.13994 0.00481819 9.16116 0.00632306 9.18239 0.00812838C9.20358 0.00993374 9.22477 0.0120388 9.24593 0.0144437C9.26708 0.0168486 9.28818 0.0195523 9.30927 0.0225547C9.33035 0.0255572 9.35139 0.0288574 9.37236 0.0324551C9.39334 0.0360527 9.41427 0.0399465 9.43514 0.0441365C9.45602 0.0483265 9.47682 0.052811 9.49757 0.05759C9.5183 0.062369 9.53898 0.0674405 9.55959 0.0728046C9.58018 0.0781687 9.60072 0.0838233 9.62117 0.0897681C9.6416 0.0957131 9.66194 0.101946 9.68222 0.108467C9.70249 0.114988 9.72266 0.121795 9.74274 0.128886C9.7628 0.135978 9.78278 0.143353 9.80264 0.15101C9.8225 0.158667 9.84226 0.166603 9.8619 0.174819C9.88154 0.183036 9.90105 0.191528 9.92046 0.200297C9.93985 0.209066 9.95912 0.218106 9.97827 0.227421L16.7303 3.57701C16.7538 3.58813 16.777 3.59965 16.8001 3.61158C16.8231 3.62352 16.8459 3.63586 16.8685 3.64858C16.8911 3.66133 16.9135 3.67445 16.9356 3.68797C16.9578 3.70149 16.9797 3.71538 17.0014 3.72966C17.023 3.74396 17.0444 3.75861 17.0656 3.77365C17.0867 3.78869 17.1076 3.80408 17.1282 3.81985C17.1488 3.83562 17.1691 3.85173 17.1892 3.86821C17.2092 3.8847 17.229 3.90151 17.2484 3.91868C17.2679 3.93586 17.287 3.95336 17.3058 3.9712C17.3247 3.98904 17.3432 4.00722 17.3614 4.02571C17.3796 4.04421 17.3975 4.063 17.415 4.08211C17.4326 4.10124 17.4498 4.12065 17.4666 4.14038C17.4835 4.1601 17.5 4.18011 17.5162 4.2004C17.5323 4.22069 17.5481 4.24127 17.5636 4.26212C17.579 4.28298 17.5941 4.30408 17.6088 4.32547C17.6235 4.34685 17.6379 4.36848 17.6518 4.39036C17.6657 4.41224 17.6791 4.43436 17.6924 4.45672C17.7056 4.47907 17.7183 4.50165 17.7308 4.52447C17.7431 4.54726 17.7551 4.57029 17.7666 4.5935C17.7782 4.61672 17.7893 4.64015 17.8001 4.66376C17.8108 4.68738 17.8212 4.71118 17.8311 4.73516C17.841 4.75913 17.8505 4.78327 17.8597 4.80758C17.8687 4.83189 17.8773 4.85634 17.8856 4.88097C17.8937 4.90558 17.9014 4.93033 17.9088 4.95521C17.9161 4.98008 17.9229 5.0051 17.9295 5.03022C17.936 5.05534 17.942 5.08059 17.9476 5.10592C17.9533 5.13125 17.9584 5.15669 17.963 5.1822C17.9677 5.20771 17.972 5.23331 17.9758 5.25898C17.9795 5.28465 17.9829 5.31037 17.9859 5.33616C17.9887 5.36195 17.9912 5.38778 17.9931 5.41364C17.9951 5.4395 17.9966 5.4654 17.9977 5.49133C17.9989 5.51725 17.9995 5.54318 17.9996 5.56913L17.9996 11.9157C18.0002 11.9418 18.0002 11.9679 17.9996 11.994C17.9991 12.02 17.9982 12.0461 17.9968 12.0722C17.9954 12.0982 17.9935 12.1242 17.9912 12.1502C17.9889 12.1762 17.9861 12.2021 17.9829 12.228C17.9795 12.2539 17.9758 12.2797 17.9718 12.3055C17.9677 12.3312 17.9631 12.3569 17.958 12.3825C17.9529 12.4081 17.9475 12.4336 17.9416 12.459C17.9356 12.4844 17.9293 12.5097 17.9224 12.5348C17.9155 12.56 17.9083 12.5851 17.9006 12.61C17.893 12.6349 17.8849 12.6597 17.8762 12.6843C17.8676 12.7089 17.8586 12.7334 17.8491 12.7577C17.8397 12.782 17.8299 12.8062 17.8195 12.8301C17.8091 12.8541 17.7985 12.8779 17.7874 12.9015C17.7763 12.9251 17.7646 12.9484 17.7526 12.9716C17.7407 12.9948 17.7283 13.0178 17.7156 13.0405C17.7028 13.0633 17.6897 13.0858 17.6761 13.1081C17.6626 13.1303 17.6485 13.1524 17.6342 13.1742C17.6199 13.196 17.6052 13.2175 17.5901 13.2388C17.575 13.26 17.5595 13.281 17.5437 13.3018C17.5279 13.3225 17.5117 13.3429 17.4951 13.3631C17.4785 13.3832 17.4616 13.4031 17.4444 13.4227C17.4271 13.4422 17.4095 13.4615 17.3916 13.4804C17.3736 13.4994 17.3554 13.518 17.3368 13.5363C17.3182 13.5546 17.2993 13.5725 17.2801 13.5901C17.2608 13.6078 17.2413 13.6251 17.2215 13.642C17.2016 13.659 17.1815 13.6755 17.1611 13.6918C17.1407 13.708 17.12 13.7239 17.099 13.7394C17.078 13.7549 17.0568 13.77 17.0353 13.7848C17.0138 13.7995 16.992 13.8139 16.97 13.8279C16.948 13.8419 16.9257 13.8555 16.9032 13.8687C16.8807 13.8819 16.858 13.8947 16.8351 13.9071C16.8121 13.9195 16.789 13.9315 16.7656 13.9431L10.0135 17.3456C9.71383 17.469 9.36124 17.5395 9.00865 17.5395ZM9.74909 9.25368L9.74909 15.7766L16.0957 12.6385C16.3425 12.5151 16.5012 12.2683 16.5012 11.9686L16.5012 6.06276L9.76672 9.23605L9.74909 9.25368ZM1.49851 5.81595L1.49851 11.9334C1.4984 11.9419 1.49844 11.9505 1.49863 11.9591C1.49882 11.9677 1.49915 11.9763 1.49964 11.9849C1.50013 11.9935 1.50077 12.0021 1.50155 12.0106C1.50234 12.0192 1.50327 12.0277 1.50436 12.0362C1.50544 12.0448 1.50667 12.0533 1.50805 12.0618C1.50943 12.0702 1.51096 12.0787 1.51263 12.0871C1.51431 12.0956 1.51613 12.104 1.5181 12.1123C1.52006 12.1207 1.52217 12.129 1.52443 12.1373C1.52669 12.1456 1.52909 12.1539 1.53163 12.1621C1.53418 12.1703 1.53686 12.1785 1.53969 12.1866C1.54252 12.1947 1.54549 12.2027 1.5486 12.2108C1.55171 12.2188 1.55496 12.2267 1.55835 12.2346C1.56173 12.2425 1.56525 12.2504 1.56891 12.2582C1.57257 12.2659 1.57637 12.2737 1.5803 12.2813C1.58423 12.2889 1.58829 12.2965 1.59248 12.304C1.59667 12.3115 1.60099 12.3189 1.60544 12.3263C1.60989 12.3336 1.61447 12.3409 1.61918 12.3481C1.62388 12.3553 1.62871 12.3624 1.63366 12.3695C1.63861 12.3765 1.64368 12.3834 1.64888 12.3903C1.65407 12.3971 1.65938 12.4039 1.66481 12.4105C1.67024 12.4172 1.67578 12.4238 1.68144 12.4302C1.6871 12.4367 1.69287 12.4431 1.69875 12.4493C1.70462 12.4556 1.71061 12.4618 1.71671 12.4679C1.7228 12.4739 1.729 12.4799 1.7353 12.4857C1.7416 12.4916 1.748 12.4973 1.7545 12.5029C1.761 12.5085 1.7676 12.514 1.7743 12.5194C1.78099 12.5248 1.78778 12.5301 1.79466 12.5353C1.80153 12.5404 1.8085 12.5455 1.81555 12.5504C1.8226 12.5553 1.82972 12.5601 1.83695 12.5648C1.84418 12.5694 1.85148 12.574 1.85885 12.5784C1.86622 12.5828 1.87367 12.5871 1.8812 12.5912C1.88873 12.5954 1.89633 12.5994 1.90399 12.6033L8.25059 15.7413L8.25059 9.21842L1.49851 5.81595ZM2.37999 4.58189L8.99102 7.91385L11.4063 6.76793L5.04203 3.31257L2.37999 4.58189ZM6.6992 2.50161L13.0987 5.97461L15.7431 4.72292L9.30835 1.54963C9.29571 1.54343 9.28291 1.53759 9.26994 1.53212C9.25696 1.52665 9.24384 1.52155 9.23059 1.51683C9.21733 1.51211 9.20395 1.50777 9.19045 1.50381C9.17694 1.49985 9.16333 1.49628 9.14962 1.4931C9.1359 1.48992 9.1221 1.48713 9.10824 1.48473C9.09437 1.48234 9.08044 1.48034 9.06646 1.47874C9.05246 1.47714 9.03844 1.47593 9.02439 1.47513C9.01034 1.47433 8.99627 1.47393 8.98221 1.47393C8.96812 1.47393 8.95405 1.47433 8.94002 1.47513C8.92595 1.47593 8.91194 1.47714 8.89796 1.47874C8.88396 1.48034 8.87003 1.48234 8.85617 1.48473C8.8423 1.48713 8.82851 1.48992 8.8148 1.4931C8.80108 1.49628 8.78747 1.49985 8.77397 1.50381C8.76046 1.50777 8.74708 1.51211 8.73383 1.51683C8.72055 1.52155 8.70743 1.52665 8.69448 1.53212C8.6815 1.53759 8.66868 1.54343 8.65606 1.54963L6.6992 2.48399L6.6992 2.50161Z"
        fill="white" />
</svg>